<svg class="qodef-svg" version="1.1" xmlns="http://www.w3.org/2000/svg" xmlns:xlink="http://www.w3.org/1999/xlink" x="0px" y="0px"
	 viewBox="0 0 1920 74" enable-background="new 0 0 1920 74" xml:space="preserve">
<path fill="#ffffff" d="M1915.8,17.2c0.1-0.1,0.1-0.1-0.1-0.3c1.2-0.1,2.5-0.1,3.7-0.2v-4.2c-0.3,0-0.6-0.1-0.9-0.2
	c1.5-0.4-0.4-1-1.7-1c-0.2,1-3.5-0.3-4.5,0.1c1.5,0.1-1.3,0.6-2.7,0.4c0.1-0.7-3-0.3-3.1-1.3c1,0.5,0.3-0.5,1.4-0.4
	c0.6,0.4,2.4,0.3,3.1,0.6c0.1-1,1.6,0,2.4,0c0.2-0.4,0.1-0.5,1.4-0.1c0.3-0.4,1-0.5,2.1-0.6c-0.7,0.3,0.4,0.8,1.7,0.7
	c0.3-0.1,0.6-0.2,0.9-0.3V8.3c-1.6,0.1-3.2,0.2-4.7,0.1c-1.8,1.3-8-0.2-11-0.1c-1.8,0.8-4.1,0.2-6.9,0.6c-0.8,0.2,0.4,0.4-0.3,0.4
	c-2.1-0.5-3.9-1.2-4.5-2.4c-8.3-1.1-18.6,0.5-26.4-0.6c-0.2,0.9-3.9,0-2.7,0.7c-4.2-0.4-4.9,2-9.3,1.2c-0.1,0.2,0.1,0.4-0.3,0.4
	c-1.1-0.6-2.8-0.4-4.1-0.4c0.8-0.4,0.5-0.7,0.7-1.5c-2.3-0.8-6.1-1.5-10.6-1.5c-6.4,0.1-14.9,0-18.2,0.4c-0.5-0.1-0.7-0.4-1-0.6
	c-1.8-0.1-2.8,0.3-4.1,0c0,0.3,0,0.6,0,0.9c-2.9,0.5-5.2-0.7-8.6-0.4c1.1,1.1-0.3,2.1-3.8,1.8c-0.3,0.3-0.7,0.6-1.7,0.6
	c-2-0.4-7.1-0.3-8.6,0.4c-4.5,0.2-6.8-0.6-9.3-0.4c0.1-0.2,0.5-0.3,0.3-0.6c-1.3-0.2-0.5,0.6-1.7,0.4c-0.4-0.6-3-0.3-4.1-0.6
	c-1.6,0.8-3.3,0.8-5.2,1.3c-0.5,0-0.3-0.4-1-0.3c-1.7,0.9-6.6,0.7-10.6,1c0,0.2,0,0.5,0,0.7c2.2,0,4-0.2,6.5-0.1
	c-0.2-0.5,0.3-0.7,1.4-0.6c-0.6,0.3,0,0.2,0,0.6c0.6,0,1.7-0.1,1.4,0.3c-0.1,0-0.1,0-0.2,0c-1,0.8-3.7,0.8-2.8,1.9
	c-2.3,0.1-4.6,0-6.8,0.1c0.1,0.7-0.4,0.8-0.9,0.9c-1.7-0.9-3.8-0.9-5.6-1.2c-1.6-0.3-2.1-1-3.3-1.2c0,0-0.2,0.3-0.3,0.3
	c-1,0-2.2-0.3-2.8-0.4c-2.4,0-4.5,0.4-7,0.1c0.1,0.1,0,0.4,0,0.6c-2,0-4,0.1-5.8,0.2c0.2,0,0.4,0.1,0,0.1c-0.5-0.2,0-0.8-1.4-0.6
	c-0.5,0.2-0.5,0.6-1.4,0.6c-0.7-0.8-8.5-0.7-11-0.1c-0.1-0.3,0.4-0.3,0.3-0.6c-3.5,0.2-7.5,0.2-10.6,0.9c0-0.2,0-0.4,0-0.6
	c-2,0.4-4.3-0.3-5.5,0.4c-0.2-0.4-2.7-0.3-2.4,0c-1.8-0.8-3.8-0.5-6.2-0.4c-0.8,0.2,0.4,0.4-0.3,0.4c-5.7-0.5-10.8-0.4-16.1-0.4
	c-0.9-1-3-0.6-4.7-0.6c-0.1,0-0.1,0-0.2,0c0,0,0,0,0,0c-1.2,0-2.3-0.3-2.7-1.3c-0.5,0.4-1.2-0.1-1.6,0.6c-0.6-0.1-0.7-0.2-1.6-0.3
	c0.1,0.9-0.9,0.7-1.4,0.4c-0.4,0.8-1.9,0-3.3,0.3c0.2,0.3,0.1,0.5,0,0.8c-2-0.1-4.3,0.3-6.6-0.1c-0.1,0.1-0.2,0.2-0.4,0.3
	c-0.9,0-1.9,0.1-2.8,0.2c-1.4-0.7-4.4-0.2-6.5-0.5c-0.5,0.4-1,0.6-1.6,0.7c-1.6-0.4-3.3-1-5-1c-1.3,0-2.3,0.4-3.7,0.1
	c0-0.4-0.5-0.2-1-0.4c0.2,0.7-1,0.4-1.2,0.7c0.2,0.2,0.2,0.4,0.1,0.6c-0.9-0.2-1.5-0.6-1.9-1c1.1-0.3,1.1-0.6,1-1.5
	c1.3-0.3,4-0.5,2.7-1c1.7,0.1,3.4,0.2,4.8,0c-1.2-0.3-0.2-0.6,0-1c-1.3,0-0.9-0.7-2.7-0.4c0.3,0.9-2,0.6-2.7,1
	c0.4,0,0.5,0.2,0.7,0.3c-2.5,0-10.4,0.4-10.6-1.5c2.4-1.7-0.1-3-3.4-4c0.3-0.8,0-1.4-0.7-2.2c-1.4,0.2-2.3-0.3-3.1,0
	c-0.3,0.5,1.1,0.2,1,0.6c-4.6-0.2-8.2,1.3-11.7,0.6c-2.2,0.5-4.9-0.1-6.2,1.2c0.6,0.2,1.8,0.2,1.4,0.9c-7.2,1.2-17.1-0.2-22,0.3
	c0.3,0,0.7,0,0.7,0.1c-1.8,0-4.9-0.6-5.5,0.3c-2.4-0.5-4.6,0-6.2-0.1c0.8,0.2-0.2,1.4-0.3,1.5c0.3-0.6-1.5-0.2-1-0.9
	c-3.3-0.7-6.8-1.3-10.6-1.3c-0.8,0-1.4,0.5-2.1,0c-0.8,0.2,0.4,0.6-0.3,0.6c-1.6-0.5-1.7,0.1-3.4-0.1c1.4,1.1,7,1.1,8.9,1
	c-0.3,0.5,0.4,0.6,0.7,0.9c2.6-0.2,3.9,0.6,5.2,1.2c-0.6,0-1.1,0-1.7,0c-0.1,0.6,0.5,0,1.4,0.1c-0.4,0.2-0.4,0.4,0,0.6
	c-0.8-0.4-1.5,0.1-2.7,0c-0.8-0.3-1.1-1.5-2.4-1c0.4,0.1,0.8,0.2,1,0.3c-1.8,0-0.3,0-0.3,0.4c-1.3-0.2-0.7,0.4-1.7,0.3
	c-0.8-0.8-2.9-0.9-4.1-1.5c-1.2,0.3-5.1,0.3-7.9,0.7c0.8-0.4-0.4-0.7-1-0.9c-1.3,0.9-3,0.3-4.5,0.7c0.1,0,0.1,0,0.2,0.1
	c-0.6-0.1-1.1-0.2-1.5-0.3c-0.4,0-0.7,0-1.1,0c0,0,0,0,0-0.1c-2.9-0.2-3.8-0.7-5.5-1.6c0.5,0.1,0.3,0.5,1.4,0.3
	c0-0.2-0.2-0.3-0.3-0.4c1.1,0.2,0.8-0.2,1.4-0.3c-0.3,0.4,0.8,0.3,1.4,0.3c0-0.4-0.7-0.5,0.3-0.6c2.9,0.3,6.8,0.8,9.6,1.3
	c2.3-0.5,0.6-1,0-1.8c-1.1-0.1-1.7,0-2.1,0.3c-3.7-0.9-10.6,0.3-14.8-1.2c-3.3,0.8-4.2,0.6-7.9,0.4c-0.3,0.3-0.6,0.6-1.4,0.7
	c0.1-0.3,1-0.3,0.7-0.7c-0.6,0-1.1,0-1.7,0c0.1,0.5-1,0.7-2.1,0.7c0.2,1.3,1.9,1.6,3.4,1.2c-0.4,0.3-0.7,0.6-1.7,0.6c0,0,0,0,0,0
	c-0.3-0.1-0.7-0.3-1-0.4c-0.2,0-0.3,0-0.4,0.1c-0.1,0-0.1-0.1-0.2-0.2c-1.2,0.4-3.1,0.4-5.1,0.4c0-0.1,0-0.3,0-0.4
	c-1,0.4-2.1-0.2-2.8,0.6c-4-0.7-8.5-0.7-13-0.2c-0.1,0-0.2,0-0.3,0c-2.2-0.5-6.1-0.1-8.2,0c0.1-0.7-1-0.3-1.4-0.6
	c-0.2,0.1-0.2,0.3-0.3,0.4c-0.6-0.1-1.2-0.1-1.8-0.2c-2.4-0.4-5.2-0.3-7.1-0.3c0-0.2-0.2-0.2-0.2-0.4c-3.1,0.7-4.9,0.3-7.3,0
	c-1,0.3-3.1,1.4-4.7-0.1c0.1,0.3-0.2,0.3-0.3,0.4c0.6-0.1,0.5,0.2,0.7,0.4c-0.2,0-0.3,0.2-0.5,0.3c0.1-0.5-0.5-0.3-0.3-0.9
	c-0.6,0-1.1,0-1.2,0.3c0-0.2-0.2-0.2-0.2-0.4c-0.5,0-0.6,0.5-1.4,0.3c-0.5-1.2-2.6,0.7-3.3-0.6c-0.3,0.5-1.1,0.5-1.9,0.4
	c-0.8,0-1.8,0.2-2.3,0.1c-1,0-1.8-0.6-2.8-0.6c-1.1,0.1-2.1,0.4-3,0.3c-1.2-0.1-3-0.7-4.2-0.7c-1,0-2,0.4-3,0.4
	c-1.7,0-3.4-0.6-4.9,0c0.1,0,0.2,0.1,0,0.1c-0.3-0.2-0.4-0.5-0.9-0.4c-1.2,0.6-2.8-0.6-4.2,0.1c-0.7-0.4-1.1-0.2-1.9-0.4
	c-0.2,0.1,0,0.6-0.3,0.6c-0.7,0-0.9-0.5-1.6-0.1c0-0.2,0.3-0.2,0-0.3c-1.3,0.2-2.1,0.1-3.1-0.3c-0.6-0.1-0.4,0.5-1,0.4
	c-0.1-0.8-1.1-0.3-1.6-0.1c-0.8-0.9-2.9,0.2-3.8-0.3c-0.1,0.5-1.3-0.4-1.6,0.4c0-1.1-1.9,0.6-1.7-0.6c-0.7,0-1.5-0.1-1.6,0.4
	c-0.5-1.1-1.7-0.1-2.6-0.7c-0.8,0.6-2.8,0-4,0.7c-0.6-0.1-1.3-1.1-1.7-0.4c-1.5-0.7-3.8-0.6-6.1-1c-0.2,0.3,0.4,0.6,0,0.6
	c-2.9-0.7-4.8-2.5-7.8-2.8c-1,0.6-2,0.6-3.5,0.2c-0.7,0.3-1.5,1.3-2.1,1.2c-0.3,0.5,0.6,0.1,0.5,0.4c-0.9,0.6-2.2,0.1-3,0.7
	c0.4,1.5-0.7,2.7-1.9,3.7c-4.6,0.1-9.1,0.3-13.1-0.3c-0.2,0.9-3.9,0-2.7,0.7c-4.2-0.4-4.9,2-9.3,1.2c-0.1,0.2,0.1,0.4-0.3,0.4
	c-1.1-0.6-2.8-0.4-4.1-0.4c0.8-0.4,0.5-0.7,0.7-1.5c-2.3-0.8-6.1-1.5-10.6-1.5c-6.4,0.1-14.9,0-18.2,0.4c-0.5-0.1-0.7-0.4-1-0.6
	c-1.8-0.1-2.7,0.3-4.1,0c0,0.3,0,0.6,0,0.9c-2.9,0.5-5.2-0.7-8.6-0.4c1.1,1.1-0.3,2.1-3.8,1.8c-0.3,0.3-0.7,0.6-1.7,0.6
	c-2-0.4-7.1-0.3-8.6,0.4c-4.5,0.2-6.8-0.6-9.3-0.4c0.1-0.2,0.5-0.3,0.3-0.6c-1.3-0.2-0.5,0.6-1.7,0.4c-0.4-0.6-3-0.3-4.1-0.6
	c-1.6,0.8-3.3,0.8-5.2,1.3c-0.5,0-0.3-0.4-1-0.3c-1.7,0.9-6.6,0.7-10.6,1c0,0.2,0,0.5,0,0.7c2.2,0,4-0.2,6.5-0.1
	c-0.2-0.5,0.3-0.7,1.4-0.6c-0.6,0.3,0,0.2,0,0.6c0.6,0,1.7-0.1,1.4,0.3c-0.1,0-0.1,0-0.2,0c-0.8,0.7-2.8,0.7-2.9,1.4
	c-1.3,0.1-2.6,0.2-3.6-0.2c-0.5,0.1-0.1,0.6-0.7,0.6c-1-0.1-2-0.2-3-0.3v1.4c-0.1,0-0.1,0-0.2,0.1c-1.7-0.9-3.8-0.9-5.6-1.2
	c-1.6-0.3-2.1-1-3.3-1.2c0,0-0.2,0.3-0.3,0.3c-1,0-2.2-0.3-2.8-0.4c-2.4,0-4.5,0.4-7,0.1c0.1,0.2-0.2,0.8,0.2,0.7
	c0.2-0.5,0.6,0,1-0.3c0.1,0.5,0.7,0.6,0.5,1.3c-1-0.3-1.2-0.2-2.3-0.3c-0.4-1.3-2-0.7-2.8-0.1c0.3,0-0.3,0.5-0.5,0.6
	c-2.1-0.2-3,1-4,0.4c0.1,0,0.2,0.1,0.2,0.3c-2.1,0.4-2.8-0.1-4.9-0.4c-1.1,0.4-2.1,0.8-3.5,0.9c-2.4,2-7.5,0.7-10.1,0.6
	c-0.1,0.4,0.3,0.3,0.2,0.7c-0.3-0.4-1.6,0.1-1.9-0.3c0-0.4,0-0.8,0.3-0.9c0.5,0.1,0.7,0.4,1,0.6c0.2-0.4,0-0.3,0.2-0.7
	c-1.1,0.1-1.2-0.8-1.7-0.7c0.5-0.2-0.1-0.7-0.2-0.9c-1.2,0.7-1.7,0.6-3.3,0.6c0,0.9-0.7,0.2-1,0.9c0.5-0.1-0.4,0.6,0.2,0.6
	c0.6-0.5,0.3,0.4,1,0.4c-1.4,0-2.2,0.1-3.3,1.2c-2.2,0.1-3.5-1.1-4.2-1.8c-1,0.1-2.7-0.2-3.3-0.3c-0.1,0-0.2,0.3-0.5,0.3
	c-0.6-0.1-1.4,0-2.3-0.1c-3.6-0.5-8.5-0.8-11.7-1c-1.1-0.1-2.1,0.5-2.6-0.1c0,0.2,0.1,0.5-0.2,0.6c-1.1-0.3-2.6-0.2-2.6-1.3
	c1.3-0.4,1.4-0.5,1.9-0.4c-1.3-2.2-6.8,0.4-7.8-2.2c-0.5,0.4-1.2-0.1-1.6,0.6c-0.6-0.1-0.7-0.2-1.6-0.3c0.1,0.9-0.9,0.7-1.4,0.4
	c-0.4,0.8-1.9,0-3.3,0.3c0.2,0.4-0.1,0.5,0,1.2c-2,1-2.9-0.8-4.7,0c-1.5-0.4-3.7-0.2-5.4,0c-0.1,0.3,0.3,0.4,0,0.4
	c-0.4,0.2-1.9-0.2-1.5-0.2c-1.6-0.1-2.9,0.3-4.4,0.2c-2.1-0.2-4.4-1.3-6.8-1.3c-1.3,0-2.3,0.4-3.7,0.1c0-0.4-0.5-0.2-1-0.4
	c0.2,0.7-1,0.4-1.2,0.7c0.2,0.2,0.2,0.4,0.1,0.6c-0.9-0.2-1.5-0.6-1.9-1c1.1-0.3,1.1-0.6,1-1.5c1.3-0.3,4-0.5,2.7-1
	c1.7,0.1,3.4,0.2,4.8,0c-1.2-0.3-0.2-0.6,0-1c-1.3,0-0.9-0.7-2.7-0.4c0.3,0.9-2,0.6-2.7,1c0.4,0,0.5,0.2,0.7,0.3
	c-2.5,0-10.4,0.4-10.6-1.5c2.4-1.7-0.1-3-3.4-4c0.3-0.8,0-1.4-0.7-2.2c-1.4,0.2-2.3-0.3-3.1,0c-0.3,0.5,1.1,0.2,1,0.6
	c-4.6-0.2-8.2,1.3-11.7,0.6c-2.2,0.5-4.9-0.1-6.2,1.2c0.6,0.2,1.8,0.2,1.4,0.9c-7.2,1.2-17.1-0.2-22,0.3c0.3,0,0.7,0,0.7,0.1
	c-1.8,0-4.9-0.6-5.5,0.3c-2.4-0.5-4.6,0-6.2-0.1c0.8,0.2-0.2,1.4-0.3,1.5c0.3-0.6-1.5-0.2-1-0.9c-3.3-0.7-6.8-1.3-10.6-1.3
	c-0.8,0-1.4,0.5-2.1,0c-0.8,0.2,0.4,0.6-0.3,0.6c-1.6-0.5-1.7,0.1-3.4-0.1c1.4,1.1,7,1.1,8.9,1c-0.3,0.5,0.4,0.6,0.7,0.9
	c2.6-0.2,3.9,0.6,5.2,1.2c-0.6,0-1.1,0-1.7,0c-0.1,0.6,0.5,0,1.4,0.1c-0.4,0.2-0.4,0.4,0,0.6c-0.8-0.4-1.5,0.1-2.7,0
	c-0.8-0.3-1.1-1.5-2.4-1c0.4,0.1,0.8,0.2,1,0.3c-1.8,0-0.3,0-0.3,0.4c-1.3-0.2-0.7,0.4-1.7,0.3c-0.8-0.8-2.9-0.9-4.1-1.5
	c-1.2,0.3-5.1,0.3-7.9,0.7c0.8-0.4-0.4-0.7-1-0.9c-1.3,0.9-3,0.3-4.5,0.7c0,0,0,0,0.1,0c-0.8-0.1-1.7-0.1-2.6-0.1
	c0.1-0.1,0.2-0.1,0.1-0.2c-2.9-0.2-3.8-0.7-5.5-1.6c0.5,0.1,0.3,0.5,1.4,0.3c0-0.2-0.2-0.3-0.3-0.4c1.1,0.2,0.8-0.2,1.4-0.3
	c-0.3,0.4,0.8,0.3,1.4,0.3c0-0.4-0.7-0.5,0.3-0.6c2.9,0.3,6.8,0.8,9.6,1.3c2.3-0.5,0.6-1,0-1.8c-1.1-0.1-1.7,0-2.1,0.3
	c-3.7-0.9-10.6,0.3-14.8-1.2c-3.3,0.8-4.2,0.6-7.9,0.4c-0.3,0.3-0.6,0.6-1.4,0.7c0.1-0.3,1-0.3,0.7-0.7c-0.6,0-1.1,0-1.7,0
	c0.1,0.5-1,0.7-2.1,0.7c0.2,1.3,1.9,1.6,3.4,1.2c-0.4,0.3-0.7,0.6-1.7,0.6c-0.3-0.1-0.7-0.3-1-0.4c-1,0.1-1.8,0.4-3.1,0.4
	c0,0.4,0.7,0.5-0.3,0.6c0-0.2,0-0.4,0-0.6c-1.9,0.3-3.6,0-3.1,0.6c-0.9-0.4-6.5-1-5.1-0.1c-3,0.1-2.3,0.1-4.8,0.1
	c0.7-0.4-1.8-0.2-3.1-0.1c-1.3-0.9-4.7-0.5-6.9-0.7c0.1,0.4-0.5,0.5-1,0.6c-4-0.4-7.2-1.3-12-0.6c-0.1-0.1,0-0.3-0.3-0.3
	c-0.1,1.5,3.6,1.3,5.5,1.9c0-0.9,5.3,0.3,5.5-0.9c0.8,0,1.6,0,2.4,0c-0.3,0.4,0.7,0.3,0.7,0.6c2.9-0.2,5,0.4,7.2,0.3
	c-0.3,0.2-1.7,0-1.4,0.4c0.8-0.1,3.8,0,1.7-0.4c2,0.2,2.5,0.2,4.1,0.6c0.1-0.2-0.1-0.4,0.3-0.4c0.3,0.4,1.2,0.5,2.1,0.6
	c-0.1,0.7-1.5,1.2-4.1,1c-0.3,0.3-0.7,0.6-1.7,0.6c-1.4-0.3-4.4-0.3-6.5,0c-0.2-0.1-0.5-0.1-0.7-0.2c-1.5,1-4.1,0.1-5.5,0.4
	c0.2-0.7-0.7-0.4-1-0.1c-0.6-0.3,0.2-0.3,0-0.7c-1.5-0.3-3-0.7-3.4-1.5c-0.5,0.3-1.5,0.4-2.1,0.7c0-0.3-0.9-0.3-1.7-0.3
	c-1,0.2-0.1,0.5-1.4,0.7c-1.5,0-3.1,0.1-3.8-0.3c0.1-0.5,1.3-0.6,2.1-0.9c-0.2-0.5,0.4-0.5,0.3-0.9c-1.9-0.3-4.7-0.4-7.2-0.4
	c0-0.2,0.4-0.2,0.3-0.4c-1.7-0.1-2.9,0-3.1,0.6c0.4,0,1,0,1,0.1c-1.5,0.7-3.6-0.2-5.2,0.1c0.4,0,0.8,0.2,0.3,0.3
	c-0.1-0.3-2.1,0-1-0.4c-3.8-0.3-9.3-0.1-6.9,1c-1.9,0.8-7.7-0.7-8.6,0.4c0.2,0,2.1,0.8,2.7,0.2c0.8,0.3,1,0.8,2.1,0.9
	c-0.5-0.4,0.9-0.7,1-0.3c-1,0.1-0.2,1.4-0.7,1.6c0.9-0.4,1,0,0.7,0.4c0.2,0,0.5,0,0.7,0c0.2,0,0.5,0,0.7,0c-0.8-0.6,1.8-1.1,0.3-2.2
	c0.4,0.2,1.6,0.2,2.1,0c0,0.5,1.1,0.5,1,1c1.3-0.3,2,0.1,2.7,0.4c0.3-0.3-1-0.5,0-0.6c0.7,0,0.7,0.4,1,0.6c-1.3,0.2-3.8-0.1-4.1,0.6
	c0.6,0,0.6,0.9,0,0.9c-1.6-0.5-4.8,0.2-4.8-0.9c-0.6-0.1-0.9,0.2-1,0c-0.1-0.1,0-0.3-0.3-0.3c0,1.1-2.4,1.1-4.8,1
	c-0.3,0.5-2,0.5-1.7,0.9c-1.4-0.9-3.4,0.3-4.9,0.1c0.2,0.1-1.3,0.1-1.3,0.2c0.1-0.9-3.5-0.5-3.8-0.4c1,0.1-1.1,0.1,0,0.4
	c-0.7,0-1.1,0.1-1.5,0.1v2.3c-0.2,0-0.4,0-0.6-0.1c0.1,0,0.2,0.1,0.2,0.3c-2.1,0.4-2.8-0.1-4.9-0.4c-0.1,0-0.2,0.1-0.3,0.1v-1.2
	c-0.3,0-0.6-0.1-0.9-0.2c1.5-0.4-0.4-1-1.7-1c-0.2,1-3.5-0.3-4.5,0.1c1.5,0.1-1.3,0.6-2.7,0.4c0.1-0.7-3-0.3-3.1-1.3
	c1,0.5,0.3-0.5,1.4-0.4c0.6,0.4,2.4,0.3,3.1,0.6c0.1-1,1.6,0,2.4,0c0.2-0.4,0.1-0.5,1.4-0.1c0.3-0.4,1-0.5,2.1-0.6
	c-0.7,0.3,0.4,0.8,1.7,0.7c0.3-0.1,0.6-0.2,0.9-0.3V9.3c-1.6,0.1-3.2,0.2-4.7,0.1c-1.8,1.3-8-0.2-11-0.1c-1.8,0.8-4.1,0.2-6.9,0.6
	c-0.8,0.2,0.4,0.4-0.3,0.4c-2.1-0.5-3.9-1.2-4.5-2.4c-8.3-1.1-18.6,0.5-26.4-0.6c-0.2,0.9-3.9,0-2.7,0.7c-4.2-0.4-4.9,2-9.3,1.2
	c-0.1,0.2,0.1,0.4-0.3,0.4c-1.1-0.6-2.8-0.4-4.1-0.4c0.8-0.4,0.5-0.7,0.7-1.5c-2.3-0.8-6.1-1.5-10.6-1.5c-6.4,0.1-14.9,0-18.2,0.4
	c-0.5-0.1-0.7-0.4-1-0.6c-0.1,0-0.2,0-0.3,0c-0.6-0.8-2.2-1.4-4.1-2c0.3-0.8,0-1.4-0.7-2.2c-1.4,0.2-2.3-0.3-3.1,0
	c-0.3,0.5,1.1,0.2,1,0.6c-4.6-0.2-8.2,1.3-11.7,0.6c-2.2,0.5-4.9-0.1-6.2,1.2c0.6,0.2,1.8,0.2,1.4,0.9c-7.2,1.2-17.1-0.2-22,0.3
	c0.3,0,0.7,0,0.7,0.1c-1.8,0-4.9-0.6-5.5,0.3c-2.4-0.5-4.6,0-6.2-0.1c0.8,0.2-0.2,1.4-0.3,1.5c0.3-0.6-1.5-0.2-1-0.9
	c-3.3-0.7-6.8-1.3-10.6-1.3c-0.8,0-1.4,0.5-2.1,0c-0.8,0.2,0.4,0.6-0.3,0.6c-1.6-0.5-1.7,0.1-3.4-0.1c1.4,1.1,7,1.1,8.9,1
	c-0.3,0.5,0.4,0.6,0.7,0.9c2.6-0.2,3.9,0.6,5.2,1.2c-0.6,0-1.1,0-1.7,0c-0.1,0.6,0.5,0,1.4,0.1c-0.4,0.2-0.4,0.4,0,0.6
	c-0.8-0.4-1.5,0.1-2.7,0c-0.8-0.3-1.1-1.5-2.4-1c0.4,0.1,0.8,0.2,1,0.3c-1.8,0-0.3,0-0.3,0.4c-1.3-0.2-0.7,0.4-1.7,0.3
	c-0.8-0.8-2.9-0.9-4.1-1.5c-1.2,0.3-5.1,0.3-7.9,0.7c0.8-0.4-0.4-0.7-1-0.9c-1.3,0.9-3,0.3-4.5,0.7c0.5,0.1,1.1,0.2,1,0.6
	c-2.1,0.2-1.9-1-3.8-0.4c0-0.2,0.4-0.2,0.3-0.4c-2.9-0.2-3.8-0.7-5.5-1.6c0.5,0.1,0.3,0.5,1.4,0.3c0-0.2-0.2-0.3-0.3-0.4
	c1.1,0.2,0.8-0.2,1.4-0.3c-0.3,0.4,0.8,0.3,1.4,0.3c0-0.4-0.7-0.5,0.3-0.6c2.9,0.3,6.8,0.8,9.6,1.3c2.3-0.5,0.6-1,0-1.8
	c-1.1-0.1-1.7,0-2.1,0.3c-3.7-0.9-10.6,0.3-14.8-1.2c-3.3,0.8-4.2,0.6-7.9,0.4c-0.3,0.3-0.6,0.6-1.4,0.7c0.1-0.3,1-0.3,0.7-0.7
	c-0.6,0-1.1,0-1.7,0c0.1,0.5-1,0.7-2.1,0.7c0.2,1.3,1.9,1.6,3.4,1.2c-0.4,0.3-0.7,0.6-1.7,0.6c-0.3-0.1-0.7-0.3-1-0.4
	c-1,0.1-1.8,0.4-3.1,0.4c0,0.4,0.7,0.5-0.3,0.6c0-0.2,0-0.4,0-0.6c-1.9,0.3-3.6,0-3.1,0.6c-0.9-0.4-6.5-1-5.1-0.1
	c-3,0.1-2.3,0.1-4.8,0.1c0.7-0.4-1.8-0.2-3.1-0.1c-1.3-0.9-4.7-0.5-6.9-0.7c0.1,0.4-0.5,0.5-1,0.6c-4-0.4-7.2-1.3-12-0.6
	c-0.1-0.1,0-0.3-0.3-0.3c-0.1,1.5,3.6,1.3,5.5,1.9c0-0.9,5.3,0.3,5.5-0.9c0.8,0,1.6,0,2.4,0c-0.3,0.4,0.7,0.3,0.7,0.6
	c2.9-0.2,5,0.4,7.2,0.3c-0.3,0.2-1.7,0-1.4,0.4c0.8-0.1,3.8,0,1.7-0.4c2,0.2,2.5,0.2,4.1,0.6c0.1-0.2-0.1-0.4,0.3-0.4
	c0.4,0.7,2.5,0.5,3.4,0.6c0,0.2-0.6,0.1-0.7,0.3c2.8-0.1,3.3,0.4,5.1,0.3c0.2,1,2.6,1.4,3.4,2.5c-0.6,0-1.1,0-1.4,0.1
	c0-0.2,0-0.4,0-0.6c-6.5,0.8-13.8-0.5-18.5-0.4c-0.4-0.5-1.5-0.6-2.4-0.9c-1.5,1-4.1,0.1-5.5,0.4c0.2-0.7-0.7-0.4-1-0.1
	c-0.6-0.3,0.2-0.3,0-0.7c-1.5-0.3-3-0.7-3.4-1.5c-0.5,0.3-1.5,0.4-2.1,0.7c0-0.3-0.9-0.3-1.7-0.3c-1,0.2-0.1,0.5-1.4,0.7
	c-1.5,0-3.1,0.1-3.8-0.3c0.1-0.5,1.3-0.6,2.1-0.9c-0.2-0.5,0.4-0.5,0.3-0.9c-1.9-0.3-4.7-0.4-7.2-0.4c0-0.2,0.4-0.2,0.3-0.4
	c-1.7-0.1-2.9,0-3.1,0.6c0.4,0,1,0,1,0.1c-1.5,0.7-3.6-0.2-5.2,0.1c0.4,0,0.8,0.2,0.3,0.3c-0.1-0.3-2.1,0-1-0.4
	c-3.8-0.3-9.3-0.1-6.9,1c-1.6,0.7-6.2-0.3-8,0.1c-0.2-0.2,0.4-0.5,0.5-0.8c-1.3,0-0.9-0.7-2.7-0.4c0.3,0.9-2,0.6-2.7,1
	c0.4,0,0.5,0.2,0.7,0.3c-2.5,0-10.4,0.4-10.6-1.5c2.4-1.7-0.1-3-3.4-4c0.3-0.8,0-1.4-0.7-2.2c-1.4,0.2-2.3-0.3-3.1,0
	c-0.3,0.5,1.1,0.2,1,0.6c-4.6-0.2-8.2,1.3-11.7,0.6c-2.2,0.5-4.9-0.1-6.2,1.2c0.6,0.2,1.8,0.2,1.4,0.9c-7.2,1.2-17.1-0.2-22,0.3
	c0.3,0,0.7,0,0.7,0.1c-1.8,0-4.9-0.6-5.5,0.3c-2.4-0.5-4.6,0-6.2-0.1c0.8,0.2-0.2,1.4-0.3,1.5c0.3-0.6-1.5-0.2-1-0.9
	c-3.3-0.7-6.8-1.3-10.6-1.3c-0.8,0-1.4,0.5-2.1,0c-0.8,0.2,0.4,0.6-0.3,0.6c-1.6-0.5-1.7,0.1-3.4-0.1c1.4,1.1,7,1.1,8.9,1
	c-0.3,0.5,0.4,0.6,0.7,0.9c2.6-0.2,3.9,0.6,5.2,1.2c-0.6,0-1.1,0-1.7,0c-0.1,0.6,0.5,0,1.4,0.1c-0.4,0.2-0.4,0.4,0,0.6
	c-0.8-0.4-1.5,0.1-2.7,0c-0.8-0.3-1.1-1.5-2.4-1c0.4,0.1,0.8,0.2,1,0.3c-1.8,0-0.3,0-0.3,0.4c-1.3-0.2-0.7,0.4-1.7,0.3
	c-0.8-0.8-2.9-0.9-4.1-1.5c-1.2,0.3-5.1,0.3-7.9,0.7c0.8-0.4-0.4-0.7-1-0.9c-1.3,0.9-3,0.3-4.5,0.7c0.5,0.1,1.1,0.2,1,0.6
	c-2.1,0.2-1.9-1-3.8-0.4c0-0.2,0.4-0.2,0.3-0.4c-2.9-0.2-3.8-0.7-5.5-1.6c0.5,0.1,0.3,0.5,1.4,0.3c0-0.2-0.2-0.3-0.3-0.4
	c1.1,0.2,0.8-0.2,1.4-0.3c-0.3,0.4,0.8,0.3,1.4,0.3c0-0.4-0.7-0.5,0.3-0.6c2.9,0.3,6.8,0.8,9.6,1.3c2.3-0.5,0.6-1,0-1.8
	c-1.1-0.1-1.7,0-2.1,0.3c-3.7-0.9-10.6,0.3-14.8-1.2c-3.3,0.8-4.2,0.6-7.9,0.4c-0.3,0.3-0.6,0.6-1.4,0.7c0.1-0.3,1-0.3,0.7-0.7
	c-0.6,0-1.1,0-1.7,0c0.1,0.5-1,0.7-2.1,0.7c0.2,1.3,1.9,1.6,3.4,1.2c-0.4,0.3-0.7,0.6-1.7,0.6c-0.3-0.1-0.7-0.3-1-0.4
	c-1,0.1-1.8,0.4-3.1,0.4c0,0.4,0.7,0.5-0.3,0.6c0-0.2,0-0.4,0-0.6c-1.9,0.3-3.6,0-3.1,0.6c-0.9-0.4-6.5-1-5.1-0.1
	c-3,0.1-2.3,0.1-4.8,0.1c0.7-0.4-1.8-0.2-3.1-0.1c-1.3-0.9-4.7-0.5-6.9-0.7c0.1,0.4-0.5,0.5-1,0.6c-4-0.4-7.2-1.3-12-0.6
	c-0.1-0.1,0-0.3-0.3-0.3c-0.1,1.5,3.6,1.3,5.5,1.9c0-0.9,5.3,0.3,5.5-0.9c0.8,0,1.6,0,2.4,0c-0.3,0.4,0.7,0.3,0.7,0.6
	c2.9-0.2,5,0.4,7.2,0.3c-0.3,0.2-1.7,0-1.4,0.4c0.8-0.1,3.8,0,1.7-0.4c2,0.2,2.5,0.2,4.1,0.6c0.1-0.2-0.1-0.4,0.3-0.4
	c0.4,0.7,2.5,0.5,3.4,0.6c0,0.2-0.6,0.1-0.7,0.3c2.8-0.1,3.3,0.4,5.1,0.3c0.2,1,2.6,1.4,3.4,2.5c-0.1,0-0.1,0-0.2,0
	c-0.2-0.2-0.6-0.3-1.2-0.4c0,0,0,0,0-0.1c-0.1,0-0.3,0-0.5,0c-0.9,0-1.9,0-2.5-0.2c-0.3,0.2-0.6,0.3-1,0.4
	c-5.4,0.1-10.8-0.7-14.6-0.7c-0.4-0.5-1.5-0.6-2.4-0.9c-1.5,1-4.1,0.1-5.5,0.4c0.2-0.7-0.7-0.4-1-0.1c-0.6-0.3,0.2-0.3,0-0.7
	c-1.5-0.3-3-0.7-3.4-1.5c-0.5,0.3-1.5,0.4-2.1,0.7c0-0.3-0.9-0.3-1.7-0.3c-1,0.2-0.1,0.5-1.4,0.7c-1.5,0-3.1,0.1-3.8-0.3
	c0.1-0.5,1.3-0.6,2.1-0.9c-0.2-0.5,0.4-0.5,0.3-0.9c-1.9-0.3-4.7-0.4-7.2-0.4c0-0.2,0.4-0.2,0.3-0.4c-1.7-0.1-2.9,0-3.1,0.6
	c0.4,0,1,0,1,0.1c-1.5,0.7-3.6-0.2-5.2,0.1c0.4,0,0.8,0.2,0.3,0.3c-0.1-0.3-2.1,0-1-0.4c-3.8-0.3-9.3-0.1-6.9,1
	c-1.9,0.8-7.7-0.7-8.6,0.4c0.2,0,2.1,0.8,2.7,0.2c0.8,0.3,1,0.8,2.1,0.9c-0.5-0.4,0.9-0.7,1-0.3c-0.5,0-0.5,0.3-0.5,0.7
	c-2.6-0.1-5.8-0.7-7.7-0.7c-1.8,0.8-4.1,0.2-6.9,0.6c-0.8,0.2,0.4,0.4-0.3,0.4c-2.1-0.5-3.9-1.2-4.5-2.4c-8.3-1.1-18.6,0.5-26.4-0.6
	c-0.2,0.9-3.9,0-2.7,0.7c-4.2-0.4-4.9,2-9.3,1.2c-0.1,0.2,0.1,0.4-0.3,0.4c-1.1-0.6-2.8-0.4-4.1-0.4c0.8-0.4,0.5-0.7,0.7-1.5
	c-2.3-0.8-6.1-1.5-10.6-1.5c-6.4,0.1-14.9,0-18.2,0.4c-0.5-0.1-0.7-0.4-1-0.6c-1.3-0.1-2.1,0.1-3,0.1c0.1-0.7-0.2-1.2-0.7-1.9
	c-1.4,0.2-2.3-0.3-3.1,0c-0.3,0.5,1.1,0.2,1,0.6c-4.6-0.2-8.2,1.3-11.7,0.6c-2.2,0.5-4.9-0.1-6.2,1.2c0.6,0.2,1.8,0.2,1.4,0.9
	c-7.2,1.2-17.1-0.2-22,0.3c0.3,0,0.7,0,0.7,0.1c-1.8,0-4.9-0.6-5.5,0.3c-2.4-0.5-4.6,0-6.2-0.1c0.8,0.2-0.2,1.4-0.3,1.5
	c0.3-0.6-1.5-0.2-1-0.9c-3.3-0.7-6.8-1.3-10.6-1.3c-0.8,0-1.4,0.5-2.1,0c-0.8,0.2,0.4,0.6-0.3,0.6c-1.6-0.5-1.7,0.1-3.4-0.1
	c1.4,1.1,7,1.1,8.9,1c-0.3,0.5,0.4,0.6,0.7,0.9c2.6-0.2,3.9,0.6,5.1,1.2c0,0,0,0,0,0c0,0,0,0,0,0c0,0,0,0,0,0c-0.6,0-1.1,0-1.7,0
	c-0.1,0.6,0.5,0,1.4,0.1c-0.4,0.2-0.4,0.4,0,0.6c-0.8-0.4-1.5,0.1-2.7,0c-0.8-0.3-1.1-1.5-2.4-1c0.4,0.1,0.8,0.2,1,0.3
	c-1.8,0-0.3,0-0.3,0.4c-1.3-0.2-0.7,0.4-1.7,0.3c-0.8-0.8-2.9-0.9-4.1-1.5c-1.2,0.3-5.1,0.3-7.9,0.7c0.8-0.4-0.4-0.7-1-0.9
	c-1.3,0.9-3,0.3-4.5,0.7c0.5,0.1,1.1,0.2,1,0.6c-2.1,0.2-1.9-1-3.8-0.4c0-0.2,0.4-0.2,0.3-0.4c-2.9-0.2-3.8-0.7-5.5-1.6
	c0.5,0.1,0.3,0.5,1.4,0.3c0-0.2-0.2-0.3-0.3-0.4c1.1,0.2,0.8-0.2,1.4-0.3c-0.3,0.4,0.8,0.3,1.4,0.3c0-0.4-0.7-0.5,0.3-0.6
	c2.9,0.3,6.8,0.8,9.6,1.3c2.3-0.5,0.6-1,0-1.8c-1.1-0.1-1.7,0-2.1,0.3c-3.7-0.9-10.6,0.3-14.8-1.2c-3.3,0.8-4.2,0.6-7.9,0.4
	c-0.3,0.3-0.6,0.6-1.4,0.7c0.1-0.3,1-0.3,0.7-0.7c-0.6,0-1.1,0-1.7,0c0.1,0.5-1,0.7-2.1,0.7c0.2,1.3,1.9,1.6,3.4,1.2
	c-0.4,0.3-0.7,0.6-1.7,0.6c-0.3-0.1-0.7-0.3-1-0.4c-1,0.1-1.8,0.4-3.1,0.4c0,0.4,0.7,0.5-0.3,0.6c0-0.2,0-0.4,0-0.6
	c-1.9,0.3-3.6,0-3.1,0.6c-0.9-0.4-6.5-1-5.1-0.1c-3,0.1-2.3,0.1-4.8,0.1c0.7-0.4-1.8-0.2-3.1-0.1c-1.3-0.9-4.7-0.5-6.9-0.7
	c0.1,0.4-0.5,0.5-1,0.6c-4-0.4-7.2-1.3-12-0.6c-0.1-0.1,0-0.3-0.3-0.3c-0.1,1.5,3.6,1.3,5.5,1.9c0-0.9,5.3,0.3,5.5-0.9
	c0.8,0,1.6,0,2.4,0c-0.3,0.4,0.7,0.3,0.7,0.6c2.9-0.2,5,0.4,7.2,0.3c-0.3,0.2-1.7,0-1.4,0.4c0.8-0.1,3.8,0,1.7-0.4
	c2,0.2,2.5,0.2,4.1,0.6c0.1-0.2-0.1-0.4,0.3-0.4c0.4,0.7,2.5,0.5,3.4,0.6c0,0.2-0.6,0.1-0.7,0.3c2.8-0.1,3.3,0.4,5.1,0.3
	c0.1,0.5,0.8,0.9,1.6,1.3c-0.3,0-0.6,0-1,0c0,0.9-0.7,0.2-1,0.9c0.1,0,0.2,0,0.1,0.1c-5.8,0.3-12-0.7-16.2-0.7
	c-0.4-0.5-1.5-0.6-2.4-0.9c-1.5,1-4.1,0.1-5.5,0.4c0.2-0.7-0.7-0.4-1-0.1c-0.6-0.3,0.2-0.3,0-0.7c-1.5-0.3-3-0.7-3.4-1.5
	c-0.2,0.2-0.6,0.3-1,0.4c-2-0.2-4.7,0.5-5.8-0.9c0.1-0.1,0.3-0.2,0.3-0.4c-1.9-0.3-4.7-0.4-7.2-0.4c0-0.2,0.4-0.2,0.3-0.4
	c-1.7-0.1-2.9,0-3.1,0.6c0.4,0,1,0,1,0.1c-1.5,0.7-3.6-0.2-5.2,0.1c0.4,0,0.8,0.2,0.3,0.3c-0.1-0.3-2.1,0-1-0.4
	c-3.8-0.3-9.3-0.1-6.9,1c-1.9,0.8-7.7-0.7-8.6,0.4c0,0,0.1,0,0.3,0.1c-0.4-0.1-0.8-0.1-1.2-0.1c-1.3,0-2.3,0.4-3.7,0.1
	c0-0.4-0.5-0.2-1-0.4c0.2,0.7-1,0.4-1.2,0.7c0.2,0.2,0.2,0.4,0.1,0.6c-0.9-0.2-1.5-0.6-1.9-1c1.1-0.3,1.1-0.6,1-1.5
	c1.3-0.3,4-0.5,2.7-1c1.7,0.1,3.4,0.2,4.8,0c-1.2-0.3-0.2-0.6,0-1c-1.3,0-0.9-0.7-2.7-0.4c0.3,0.9-2,0.6-2.7,1
	c0.4,0,0.5,0.2,0.7,0.3C200,9.5,192,9.8,191.8,8c2.4-1.7-0.1-3-3.4-4c0.3-0.8,0-1.4-0.7-2.2c-1.4,0.2-2.3-0.3-3.1,0
	c-0.3,0.5,1.1,0.2,1,0.6c-4.6-0.2-8.2,1.3-11.7,0.6c-2.2,0.5-4.9-0.1-6.2,1.2c0.6,0.2,1.8,0.2,1.4,0.9c-7.2,1.2-17.1-0.2-22,0.3
	c0.3,0,0.7,0,0.7,0.1c-1.8,0-4.9-0.6-5.5,0.3c-2.4-0.5-4.6,0-6.2-0.1c0.8,0.2-0.2,1.4-0.3,1.5c0.3-0.6-1.5-0.2-1-0.9
	c-3.3-0.7-6.8-1.3-10.6-1.3c-0.8,0-1.4,0.5-2.1,0c-0.8,0.2,0.4,0.6-0.3,0.6c-1.6-0.5-1.7,0.1-3.4-0.1c1.4,1.1,7,1.1,8.9,1
	c-0.3,0.5,0.4,0.6,0.7,0.9c2.6-0.2,3.9,0.6,5.2,1.2c-0.6,0-1.1,0-1.7,0c-0.1,0.6,0.5,0,1.4,0.1c-0.4,0.2-0.4,0.4,0,0.6
	c-0.8-0.4-1.5,0.1-2.7,0c-0.8-0.3-1.1-1.5-2.4-1c0.4,0.1,0.8,0.2,1,0.3c-1.8,0-0.3,0-0.3,0.4c-1.3-0.2-0.7,0.4-1.7,0.3
	c-0.8-0.8-2.9-0.9-4.1-1.5c-1.2,0.3-5.1,0.3-7.9,0.7c0.8-0.4-0.4-0.7-1-0.9c-1.3,0.9-3,0.3-4.5,0.7c0.5,0.1,1.1,0.2,1,0.6
	c-2.1,0.2-1.9-1-3.8-0.4c0-0.2,0.4-0.2,0.3-0.4c-2.9-0.2-3.8-0.7-5.5-1.6c0.5,0.1,0.3,0.5,1.4,0.3c0-0.2-0.2-0.3-0.3-0.4
	c1.1,0.2,0.8-0.2,1.4-0.3c-0.3,0.4,0.8,0.3,1.4,0.3c0-0.4-0.7-0.5,0.3-0.6c2.9,0.3,6.8,0.8,9.6,1.3c2.3-0.5,0.6-1,0-1.8
	c-1.1-0.1-1.7,0-2.1,0.3c-3.7-0.9-10.6,0.3-14.8-1.2c-3.3,0.8-4.2,0.6-7.9,0.4c-0.3,0.3-0.6,0.6-1.4,0.7c0.1-0.3,1-0.3,0.7-0.7
	c-0.6,0-1.1,0-1.7,0c0.1,0.5-1,0.7-2.1,0.7c0.2,1.3,1.9,1.6,3.4,1.2c-0.4,0.3-0.7,0.6-1.7,0.6c-0.3-0.1-0.7-0.3-1-0.4
	c-1,0.1-1.8,0.4-3.1,0.4c0,0.4,0.7,0.5-0.3,0.6c0-0.2,0-0.4,0-0.6c-1.9,0.3-3.6,0-3.1,0.6c-0.9-0.4-6.5-1-5.1-0.1
	c-3,0.1-2.3,0.1-4.8,0.1c0.7-0.4-1.8-0.2-3.1-0.1c-1.3-0.9-4.7-0.5-6.9-0.7c0.1,0.4-0.5,0.5-1,0.6c-4-0.4-7.2-1.3-12-0.6
	c-0.1-0.1,0-0.3-0.3-0.3c-0.1,1.5,3.6,1.3,5.5,1.9c0-0.9,5.3,0.3,5.5-0.9c0.8,0,1.6,0,2.4,0c-0.3,0.4,0.7,0.3,0.7,0.6
	c2.9-0.2,5,0.4,7.2,0.3c-0.3,0.2-1.7,0-1.4,0.4c0.8-0.1,3.8,0,1.7-0.4c2,0.2,2.5,0.2,4.1,0.6c0.1-0.2-0.1-0.4,0.3-0.4
	c0.4,0.7,2.5,0.5,3.4,0.6c0,0.2-0.6,0.1-0.7,0.3c2.8-0.1,3.3,0.4,5.1,0.3c0.2,1,2.6,1.4,3.4,2.5c-0.6,0-1.1,0-1.4,0.2
	c0-0.2,0-0.4,0-0.6c-6.5,0.8-13.8-0.5-18.5-0.4c-0.4-0.5-1.5-0.6-2.4-0.9c-1.5,1-4.1,0.1-5.5,0.4c0.2-0.7-0.7-0.4-1-0.1
	c-0.6-0.3,0.2-0.3,0-0.7c-1.5-0.3-3-0.7-3.4-1.5c-0.5,0.3-1.5,0.4-2.1,0.7c0-0.3-0.9-0.3-1.7-0.3c-1,0.2-0.1,0.5-1.4,0.7
	c-1.5,0-3.1,0.1-3.8-0.3C42.9,9,44,8.9,44.8,8.7c-0.2-0.5,0.4-0.5,0.3-0.9c-1.9-0.3-4.7-0.4-7.2-0.4c0-0.2,0.4-0.2,0.3-0.4
	c-1.7-0.1-2.9,0-3.1,0.6c0.4,0,1,0,1,0.1c-1.5,0.7-3.6-0.2-5.2,0.1c0.4,0,0.8,0.2,0.3,0.3c-0.1-0.3-2.1,0-1-0.4
	c-3.8-0.3-9.3-0.1-6.9,1C21.7,9.5,15.9,8,15,9.1c0.2,0,2.1,0.8,2.7,0.2c0.8,0.3,1,0.8,2.1,0.9c-0.5-0.4,0.9-0.7,1-0.3
	c-1,0.1-0.2,1.4-0.7,1.6c0.9-0.4,1,0,0.7,0.4c0.2,0,0.5,0,0.7,0c0.2,0,0.5,0,0.7,0c-0.8-0.6,1.8-1.1,0.3-2.2c0.4,0.2,1.6,0.2,2.1,0
	c0,0.5,1.1,0.5,1,1c1.3-0.3,2,0.1,2.7,0.4c0.3-0.3-1-0.5,0-0.6c0.7,0,0.7,0.4,1,0.6c-1.3,0.2-3.8-0.1-4.1,0.6c0.6,0,0.6,0.9,0,0.9
	c-1.6-0.5-4.8,0.2-4.8-0.9c-0.6-0.1-0.9,0.2-1,0c-0.1-0.1,0-0.3-0.3-0.3c0,1.1-2.4,1.1-4.8,1c-0.3,0.5-2,0.5-1.7,0.9
	c-1.4-0.9-3.4,0.3-4.9,0.1c0.2,0.1-1.3,0.1-1.3,0.2c0.1-0.9-3.5-0.5-3.8-0.4c1,0.1-1.1,0.1,0,0.4c-0.7,0-1.1,0.1-1.5,0.1v3.4H0.7V74
	H1920V17.2H1915.8z M725,9.2c-0.2,0-0.5,0-0.7,0c0.2-0.4,0.9-0.7,2.1-0.7C726.2,8.9,725.3,8.7,725,9.2z M533.9,8.7
	c-0.2,0-0.5,0-0.7,0c0.2-0.4,0.9-0.7,2.1-0.7C535.1,8.3,534.2,8.1,533.9,8.7z M271.3,12c-0.2,0-0.5,0-0.7,0c0.2-0.4,0.9-0.7,2.1-0.7
	C272.4,11.6,271.6,11.4,271.3,12z M78.8,9c-0.2,0-0.5,0-0.7,0c0.2-0.4,0.9-0.7,2.1-0.7C80,8.6,79.2,8.4,78.8,9z M141,10
	c0,0.1,0,0.3,0,0.4c-0.5,0-1.3-0.1-1.4,0.1c-0.4,0-0.2-0.1,0-0.1c0.1-0.2-0.1-0.3-0.3-0.3C139.6,10,139.9,10.1,141,10z M139.3,8.4
	c0.2-0.5,0.9-0.2,1.7-0.1c0,0.3-0.4,0.3-0.3,0.6C139.9,8.8,140,8.4,139.3,8.4z M142.3,10.2c0.7,0,0.1,0.7,1,0.6
	c-0.1,0.2-1.1,0.1-0.7,0.6c-0.9,0-1.1-0.2-1.4-0.4C140.9,10.4,142.6,10.7,142.3,10.2z M144.7,16.6c0,0.4-1.9,0.4-2.4,0.1
	C142.5,16.4,144,16.7,144.7,16.6z M171.5,15.1c0.8,0.2-0.6,0.4,0.3,0.6c-0.7,0.8-5.4-0.4-2.4-0.6c-0.1,0.2-0.7,0.1-0.7,0.3
	C169.5,15.8,170.1,14.9,171.5,15.1z M242.5,15.4c0.1,0,0.2,0,0.3,0c0.3,0,0.5,0.1,0.8,0.2c-0.4,0.3-2,0.2-2.4-0.2
	C241.6,15.3,242,15.3,242.5,15.4z M333.1,10.9c-0.3,0-0.6-0.1-1-0.1c0.2-0.1,0.6-0.2,1.2-0.2C333.1,10.8,333.1,10.8,333.1,10.9z
	 M332,11.2c0.3-0.1,0.8,0.1,1.4,0.1c0,0.3-0.4,0.3-0.3,0.6c-0.7,0-0.7-0.4-1.4-0.4c0-0.1,0.1-0.1,0.1-0.2
	C331.9,11.2,331.9,11.2,332,11.2C332,11.2,332,11.2,332,11.2z M370.2,14.4c-1.9-0.1-3.9-0.1-5.5,0c-0.1-0.3,0.1-0.6,0.3-0.7
	c-1-1-3,0-4.5-0.6c0-0.1,0-0.1,0-0.2c1-0.4,2.3-0.6,3.7-0.5c0,0,0.1,0.1,0.1,0.1c0,0,0.1-0.1,0.1-0.1
	C367.3,12.5,370.2,13.3,370.2,14.4z M359.3,13.3c-0.7,0.2-0.9,0.6-1.5,0.9c-0.9-0.1-1.4-0.5-2.1,0c-0.3-0.1-0.5-0.4-0.7-0.1
	c-0.5,0,0.6-0.7-1-0.6c0-0.2,0-0.3,0-0.4c0.6,0.1,1.1,0.3,1-0.2c0.6,0,0.9,0.1,1,0.3c0.3-0.1,0.5-0.3,0.7-0.4
	c1.2-0.1,1.8,0.1,2.7,0.2c-0.3,0.1-0.5,0.2-1,0.1c0.3,0.4,0.5,0.2,1.1,0.2C359.5,13.2,359.4,13.3,359.3,13.3z M360.1,12.9
	C360.1,12.9,360.1,12.9,360.1,12.9C360.2,12.9,360.2,12.9,360.1,12.9C360.1,12.9,360.1,12.9,360.1,12.9z M595.7,8.6
	c-0.7,0-0.7-0.4-1.4-0.4c0.2-0.5,0.9-0.2,1.7-0.1C596.1,8.2,595.6,8.3,595.7,8.6z M785.4,8.6c0.2-0.5,0.9-0.2,1.7-0.1
	c0,0.3-0.4,0.3-0.3,0.6C786.1,9,786.2,8.7,785.4,8.6z M1082.2,7.1c0.2-0.5,0.9-0.2,1.7-0.1c0,0.3-0.4,0.3-0.3,0.6
	C1082.9,7.5,1082.9,7.1,1082.2,7.1z M787.2,10.6c0,0.1,0,0.1,0,0.2c0,0-0.1,0-0.1,0C787.1,10.7,787.1,10.6,787.2,10.6z M787.5,11.2
	c-0.3-0.4,0.5-0.3,0.9-0.5c0,0.1,0.1,0.1,0.1,0.2c0.2,0,0.4,0,0.6,0c0.1,0.1,0.2,0.1,0.5,0.1c-0.1,0.2-1.1,0.1-0.7,0.6c0,0,0,0,0,0
	C788,11.6,787.8,11.4,787.5,11.2z M480.7,11.2c-0.1,0-0.2,0.1-0.2,0.1c-0.1,0-0.1,0.1-0.2,0.1c0.1,0,0.1,0,0.2,0
	c0,0,0.1,0.1,0.2,0.1c0.2,0.3,0.1,0.7-0.3,0.7c-1.6-0.5-4.7,0.2-4.8-0.9c0.1,0,0.2,0,0.4,0.1c0,0,0,0,0,0.1c0.1,0,0.1,0,0.2,0
	c0.4,0.1,0.8,0.3,1.2,0.3c0.2-0.4,0.1-0.5,1.4-0.1C478.9,11.5,479.6,11.3,480.7,11.2z M475.5,11.5c-0.1,0-0.3,0-0.4,0
	C475.2,11.5,475.4,11.5,475.5,11.5z M240,16.3c-0.2-0.1-0.4-0.1-0.6-0.1c0.1-0.1,0.2-0.2,0.4-0.3C240,15.9,240,16.1,240,16.3z
	 M1577,8.8c0,0.1,0,0.3,0,0.4c-0.5,0-1.3-0.1-1.4,0.2c-0.4,0-0.2-0.2,0-0.2c0.1-0.2-0.1-0.3-0.3-0.3C1575.6,8.8,1576,8.9,1577,8.8z
	 M1575.3,7.1c0.2-0.5,0.9-0.2,1.7-0.1c0,0.3-0.4,0.3-0.3,0.6C1576,7.5,1576,7.2,1575.3,7.1z M1578.4,8.9c0.7,0,0.1,0.7,1,0.6
	c-0.1,0.2-1.1,0.1-0.7,0.6c-0.9,0-1.1-0.2-1.4-0.4C1577,9.1,1578.7,9.4,1578.4,8.9z M1892.7,10.9c0.3,0,0.3-0.2,0.7-0.1
	c0-0.3-0.9-0.2-0.7-0.6c0.6,0.2,1.7,0,2.7,0.3c-0.9,0.5-3,0.4-3.1,0.9c-1.6,0.1-0.5-0.6-1-0.6C1891.4,10.4,1892.3,10.9,1892.7,10.9z
	 M1860.8,16.8c0.2,0.2,0.4,0.3,0.7,0.4h-2.3c0,0-0.1-0.1-0.1-0.1C1859.4,16.7,1860.8,17.5,1860.8,16.8z M1838.8,7.1
	c0,0.2-0.2,0.6,0.3,0.6c-1.2,0.9-5.3,0.6-5.5-0.4C1834.8,6.4,1836.9,6.8,1838.8,7.1z M1806.2,13.4c-2,0.5-6.8,0.3-7.9-0.6
	c-1,0-0.7,0.5-2.1,0.3c1.1-0.3,0.4-0.7,0.3-1.5C1799.7,10.3,1807.1,11.6,1806.2,13.4z M1789.7,11.8c0.7-0.1,1.5,0.5,1.4-0.1
	c0.6,0,0.9,0.1,1,0.3c0.3-0.1,0.5-0.3,0.7-0.4c1.5-0.1,1.9,0.3,3.4,0.1c-0.7,0.5-2.2,0.7-1.4,1.5c-0.7,0.2-1.2-0.2-1,0.6
	c-2.1,0-3.4-0.4-4.3-1c0-0.2-0.1-0.4-0.1-0.6C1789.6,12.1,1789.7,11.9,1789.7,11.8z M1773.1,10.1c-0.6,0.4-1.4,0.2-2.3,0.1
	C1771.7,10.2,1772.5,10.1,1773.1,10.1z M1742.4,11.3c0,0,0,0.1,0,0.1c-0.3,0-0.6,0-0.9,0C1741.7,11.2,1742,11.5,1742.4,11.3z
	 M1636.4,12.1c-0.2,0.1-0.3,0.2-0.4,0.3c0,0,0,0,0,0c0,0-0.1,0-0.1,0c0,0,0,0,0,0C1636.1,12.3,1636.2,12.2,1636.4,12.1z M1590.4,7.3
	c-0.1-0.3,1.2-0.4,1.7-0.9c0.7,0,0.1,0.7,0.7,0.7c0.5,0,0.3-0.4,0.3-0.6c1,0.1,0.9-0.2,1.7-0.1c2,1.1,3.8,0.5,6.2,0.7
	c-0.4-0.9-1.1-0.2-1-1c1.9,0.4,3.2,0.1,5.2,0.4c-0.1,0.7-1,0.4-1.7,0.6c0.6,0.3,1.1,0.6,2.4,0.6c0.4,0,0.3-0.3,0-0.3
	c0.5-0.3,1.8,0.4,2.1,0.7c0.9-0.6,6.3-0.7,6.2-0.1c3.5-0.3,4.7,1.5,7.6,1.9c-0.2,0.1-0.4,0.3,0,0.3c0,0.1-1.8,0.1-0.7,0.4
	c-3.5-0.5-8.9-0.8-12.7-0.6c-0.1-0.3,0.1-0.6,0.3-0.7c-1.1-1.1-3.4,0.2-4.8-0.7c-1-0.1-0.9,0.2-1.7,0.1c0.3,0.4,0.5,0.2,1.4,0.1
	c-1.1,0.2-1.3,0.7-2.1,1c-0.9-0.1-1.4-0.5-2.1,0c-0.3-0.1-0.5-0.4-0.7-0.1c-0.5,0,0.6-0.7-1-0.6c0-0.4-0.1-0.7,0.3-0.9
	c-2.2,0.1-4.3-0.5-7.2-0.4c0.7-0.3,0.1-0.6-1-0.4C1589.8,7.3,1590.2,7.3,1590.4,7.3z M1582.2,5.8c0.4,0.2,1.2,0.3,2.1,0.3
	c-0.6,0.2,0.2,1-1.4,0.7c0.6-0.5,0-0.5-1.4-0.4c0.2-0.1,0.3-0.3,0.7-0.3c-0.2-0.1-0.4-0.2-0.3-0.4C1582.1,5.6,1582.2,5.7,1582.2,5.8
	z M1573.3,5.5c0.9,0.2,1.7-0.4,1-0.4c1.1-0.4,4.7,0.1,3.8,0.6c1-0.6,2.4,0,3.4,0.3c-0.1,0.6-0.8,0.8-1.4,1.2c-2-0.3-2.9-0.6-4.8-0.6
	c-0.1-0.3,0.3-0.3,0.7-0.3C1575.4,6.1,1572.8,6.5,1573.3,5.5z M1527.6,4.8c0.5,0.1,0.5,0.3,1,0.3c0,0.2-1.5,0.3-0.3,0.4
	c-0.3,0.3-0.6,0-1,0C1527.5,5.3,1527.7,5.1,1527.6,4.8z M1436.8,13.2c0,0.4-0.3,0.5-0.3,0.7c0.3,0.4,0.5,0.3,0.7,0.3v0.7
	c0,0,0,0,0,0c-0.2-0.2-0.7-0.2-1.2-0.1c-0.2-0.1-0.3-0.1-0.5-0.2c0.3-0.1,0.2-0.6,0.6-0.3c0-0.2,0-0.4,0.2-0.4
	c-0.4,0-0.6-0.7-0.7-0.4c-0.5,0,0.4-0.4-0.3-0.3C1435.8,12.9,1436.3,13.2,1436.8,13.2z M1435.2,14.5c-0.2-0.1-0.3-0.2-0.4-0.3
	c-0.4,0-0.7-0.1-1.1-0.1c0.5-0.1,1.2-0.1,1.6-0.3C1435.5,14,1435.2,14.1,1435.2,14.5z M1435,13c0.1,0.3-0.5,0.2-0.5,0.4
	c-0.2,0-0.1-0.1,0-0.1c0-0.3-0.7-0.1-1-0.1C1433.9,12.7,1434.2,13.1,1435,13z M1345.7,7.1c0,0.2-0.2,0.6,0.3,0.6
	c-1.2,0.9-5.3,0.6-5.5-0.4C1341.7,6.3,1343.9,6.8,1345.7,7.1z M1309.9,11.3c-0.2,0.1-0.3,0.1-0.5,0.2c-0.8-0.2-1.7-0.4-2.5-0.5
	C1307.9,11,1308.9,11.1,1309.9,11.3z M1280,10c-0.6,0.4-1.4,0.2-2.3,0.1C1278.6,10.1,1279.4,10,1280,10z M1219.5,14.9
	c0,0.6-1.1,0.2-1.4,0.1C1218.4,14.9,1219.2,14.6,1219.5,14.9z M1204.5,15.7c0.2,0.9-0.8,0.6-0.5,1.5c-0.1,0-0.2,0-0.3,0.1h-0.5
	c-0.1-0.2,0.2-0.5-0.5-0.4c0.4-0.3,0.1-0.6-0.5-0.4C1202.5,15.4,1203.4,15.9,1204.5,15.7z M1187.1,14.5c-0.7,1.5-3,0.6-4.7,0.3
	C1182.9,13.9,1185.6,13.7,1187.1,14.5z M1143.3,12c-0.2,0.1-0.4,0.3-0.4,0.4c0-0.1,0-0.1-0.1-0.1C1143,12.2,1143.2,12.1,1143.3,12z
	 M1138.3,13.3c0.1,0.9,1.1,1.9-0.2,2.4c-4.4,0.3-7.6-0.6-8.8-1.9C1131.6,13.3,1135.6,12.9,1138.3,13.3z M1097.3,7.2
	c-0.1-0.3,1.2-0.4,1.7-0.9c0.7,0,0.1,0.7,0.7,0.7c0.5,0,0.3-0.4,0.3-0.6c1,0.1,0.9-0.2,1.7-0.1c2,1.1,3.8,0.5,6.2,0.7
	c-0.4-0.9-1.1-0.2-1-1c1.9,0.4,3.2,0.1,5.2,0.4c-0.1,0.7-1,0.4-1.7,0.6c0.6,0.3,1.1,0.6,2.4,0.6c0.4,0,0.3-0.3,0-0.3
	c0.5-0.3,1.8,0.4,2.1,0.7c0.9-0.6,6.3-0.7,6.2-0.1c3.5-0.3,4.6,1.5,7.5,1.9c-1.3,0.1-2.5,0.1-3.7,0.1c-0.2,0.1-0.4,0.2-0.6,0.3
	c-2.6-0.2-5.4-0.3-7.8-0.3c-0.4,0-0.8-0.1-1.2-0.1c0-0.3,0.1-0.4,0.4-0.6c-1.1-1.1-3.4,0.2-4.8-0.7c-1-0.1-0.9,0.2-1.7,0.1
	c0.3,0.4,0.5,0.2,1.4,0.1c-1.1,0.2-1.3,0.7-2.1,1c-0.9-0.1-1.4-0.5-2.1,0c-0.3-0.1-0.5-0.4-0.7-0.1c-0.5,0,0.6-0.7-1-0.6
	c0-0.4-0.1-0.7,0.3-0.9c-2.2,0.1-4.3-0.5-7.2-0.4c0.7-0.3,0.1-0.6-1-0.4C1096.7,7.2,1097.1,7.3,1097.3,7.2z M1089.1,5.7
	c0.4,0.2,1.2,0.3,2.1,0.3c-0.6,0.2,0.2,1-1.4,0.7c0.6-0.5,0-0.5-1.4-0.4c0.2-0.1,0.3-0.3,0.7-0.3c-0.2-0.1-0.4-0.2-0.3-0.4
	C1089.1,5.6,1089.1,5.6,1089.1,5.7z M1080.2,5.4c0.9,0.2,1.7-0.4,1-0.4c1.1-0.4,4.7,0.1,3.8,0.6c1-0.6,2.4,0,3.4,0.3
	c-0.1,0.6-0.8,0.8-1.4,1.2c-2-0.3-2.9-0.6-4.8-0.6c-0.1-0.3,0.3-0.3,0.7-0.3C1082.3,6,1079.8,6.4,1080.2,5.4z M1034.5,4.7
	c0.5,0.1,0.5,0.3,1,0.3c0,0.2-1.5,0.3-0.3,0.4c-0.3,0.3-0.6,0-1,0C1034.5,5.3,1034.6,5,1034.5,4.7z M1023.2,6.9
	c-0.2,0.3-0.8,0.2-1.2,0.6c-0.2,0-0.4-0.1-0.6-0.1C1021.7,7.1,1022.3,7,1023.2,6.9z M979.6,6.3c0.1-0.2,0.9-0.1,1.4-0.1
	c-0.2,0.1-0.5,0.4,0,0.4c-0.1,0.2-0.9,0.1-1.4,0.1C979.5,6.5,980.2,6.4,979.6,6.3z M973.4,8c0.6,0,1,0.8,1.7,0.3
	c0.7-0.3-0.3,0.5,0.3,0.7c0.4-0.2,0.9-0.1,0.3,0c-0.1,0.4,1.6-0.1,1,0.4c1.1,0.1,0.7-0.4,1.7-0.3c-0.5,0.3,0.2,0.4-0.3,0.9
	c-2.2,0.2-2.7-0.3-4.1-0.4c-0.5-0.8-0.2-1-1.4-1.5C972.8,7.9,973.3,8.2,973.4,8z M972.7,9.6c0.1-0.2,1.1,0.4,1,0.7
	c-0.5,0.1-0.8-0.6-1-0.1C971.8,10.2,973.2,9.9,972.7,9.6z M911.7,11.8c0.3,0,0.3-0.2,0.7-0.1c0-0.3-0.9-0.2-0.7-0.6
	c0.6,0.2,1.7,0,2.7,0.3c-0.9,0.5-3,0.4-3.1,0.9c-1.6,0.1-0.5-0.6-1-0.6C910.5,11.3,911.3,11.8,911.7,11.8z M857.8,8.1
	c0,0.2-0.2,0.6,0.3,0.6c-0.9,0.7-3.5,0.7-4.8,0.2c0,0,0-0.1,0.1-0.1c-0.1,0-0.2,0-0.3,0c-0.3-0.1-0.4-0.3-0.5-0.5
	C853.8,7.4,856,7.8,857.8,8.1z M805,7.9c2,1.1,3.8,0.5,6.2,0.7c-0.4-0.9-1.1-0.2-1-1c1.9,0.4,3.2,0.1,5.2,0.4
	c-0.1,0.7-1,0.4-1.7,0.6c0.2,0.1,0.4,0.2,0.7,0.3c-0.9,0.1-1.7,0.3-2.1,0.5c-4.5,0.2-6.8-0.6-9.3-0.4c0.1-0.2,0.4-0.3,0.4-0.5
	c0.1-0.1,0-0.3,0.1-0.5C804.3,8.2,804.2,7.8,805,7.9z M802.7,8.4c-0.5,0.1-0.2,0.5-1.2,0.4c-0.1-0.2-0.3-0.3-0.6-0.3
	c0.4-0.2,1.1-0.3,1.4-0.6C802.7,7.9,802.6,8.2,802.7,8.4z M792.3,7.3c0.4,0.2,1.2,0.3,2.1,0.3c-0.6,0.2,0.2,1-1.4,0.7
	c0.6-0.5,0-0.5-1.4-0.4c0.2-0.1,0.3-0.3,0.7-0.3c-0.2-0.1-0.4-0.2-0.3-0.4C792.3,7.1,792.3,7.2,792.3,7.3z M783.4,7
	c0.9,0.2,1.7-0.4,1-0.4c1.1-0.4,4.7,0.1,3.8,0.6c1-0.6,2.4,0,3.4,0.3c-0.1,0.6-0.8,0.8-1.4,1.2c-2-0.3-2.9-0.6-4.8-0.6
	c-0.1-0.3,0.3-0.3,0.7-0.3C785.5,7.6,783,8,783.4,7z M737.7,6.3c0.5,0.1,0.5,0.3,1,0.3c0,0.2-1.5,0.3-0.3,0.4c-0.3,0.3-0.6,0-1,0
	C737.7,6.8,737.8,6.6,737.7,6.3z M731.5,11.9c0.3,0.1,0.8,0.2,1.4,0.1c0,0.1,0,0.2,0,0.3c-0.3,0.1-0.6,0.2-1,0.1
	c0.1-0.3-0.3-0.3-0.3-0.1C731,12.3,731.7,12.2,731.5,11.9z M682.8,7.9c0.1-0.2,0.9-0.1,1.4-0.1c-0.2,0.1-0.5,0.4,0,0.4
	c-0.1,0.2-0.9,0.1-1.4,0.1C682.7,8.1,683.4,8,682.8,7.9z M676.6,9.5c0.6,0,1,0.8,1.7,0.3c0.7-0.3-0.3,0.5,0.3,0.7
	c0.4-0.2,0.9-0.1,0.3,0c-0.1,0.4,1.6-0.1,1,0.4c1.1,0.1,0.7-0.4,1.7-0.3c-0.5,0.3,0.2,0.4-0.3,0.9c-2.2,0.2-2.7-0.3-4.1-0.4
	c-0.5-0.8-0.2-1-1.4-1.5C676,9.5,676.5,9.8,676.6,9.5z M675.9,11.2c0.1-0.2,1.1,0.4,1,0.7c-0.5,0.1-0.8-0.6-1-0.1
	C675,11.7,676.4,11.5,675.9,11.2z M654.8,10.3c1.3-0.3,4-0.5,2.7-1c1.3,0.1,2.6,0.2,3.7,0.1c0.4,0.1,2.1,0.8,2.7,0.1
	c0.8,0.3,1,0.8,2.1,0.9c-0.5-0.4,0.9-0.7,1-0.3c-1,0.1-0.2,1.4-0.7,1.6c0.9-0.4,1,0,0.7,0.4c0.2,0,0.5,0,0.7,0c0.2,0,0.5,0,0.7,0
	c-0.8-0.6,1.8-1.1,0.3-2.2c0.4,0.2,1.6,0.2,2.1,0c0,0.5,1.1,0.5,1,1c1.3-0.3,2,0.1,2.7,0.4c0.3-0.3-1-0.5,0-0.6c0.7,0,0.7,0.4,1,0.6
	c-1.3,0.2-3.8-0.1-4.1,0.6c0.4,0,0.5,0.4,0.4,0.6c-0.3,0-0.5,0-0.8,0c-0.1,0-0.1,0.1-0.2,0.1c-1.7-0.2-4.2,0.2-4.2-0.8
	c-0.6-0.1-0.9,0.2-1,0c-0.1-0.1,0-0.3-0.3-0.3c0,0.3-0.1,0.4-0.4,0.6c-1.1-0.3-2.2-0.6-3.4-0.6c-1.3,0-2.3,0.4-3.7,0.1
	c0-0.4-0.5-0.2-1-0.4c0.2,0.7-1,0.4-1.2,0.7c0.2,0.2,0.2,0.4,0.1,0.6c-0.9-0.2-1.5-0.6-1.9-1C654.9,11.6,654.9,11.2,654.8,10.3z
	 M609.4,8.3c-0.1-0.3,1.2-0.4,1.7-0.9c0.7,0,0.1,0.7,0.7,0.7c0.5,0,0.3-0.4,0.3-0.6c1,0.1,0.9-0.2,1.7-0.1c2,1.1,3.8,0.5,6.2,0.7
	c-0.4-0.9-1.1-0.2-1-1c1.9,0.4,3.2,0.1,5.2,0.4c-0.1,0.7-1,0.4-1.7,0.6c0.6,0.3,1.1,0.6,2.4,0.6c0.4,0,0.3-0.3,0-0.3
	c0.5-0.3,1.8,0.4,2.1,0.7c0.9-0.6,6.3-0.7,6.2-0.1c3.3-0.3,4.5,1.3,7,1.8c-4.3,0-8.7,0.3-12.8,0.2c-0.1-0.3,0.1-0.5,0.4-0.7
	c-1.1-1.1-3.4,0.2-4.8-0.7c-1-0.1-0.9,0.2-1.7,0.1c0.3,0.4,0.5,0.2,1.4,0.1c-1.1,0.2-1.3,0.7-2.1,1c-0.9-0.1-1.4-0.5-2.1,0
	c-0.3-0.1-0.5-0.4-0.7-0.1c-0.5,0,0.6-0.7-1-0.6c0-0.4-0.1-0.7,0.3-0.9c-2.2,0.1-4.3-0.5-7.2-0.4c0.7-0.3,0.1-0.6-1-0.4
	C608.8,8.3,609.2,8.3,609.4,8.3z M601.2,6.8c0.4,0.2,1.2,0.3,2.1,0.3c-0.6,0.2,0.2,1-1.4,0.7c0.6-0.5,0-0.5-1.4-0.4
	c0.2-0.1,0.3-0.3,0.7-0.3c-0.2-0.1-0.4-0.2-0.3-0.4C601.2,6.6,601.2,6.7,601.2,6.8z M592.3,6.5c0.9,0.2,1.7-0.4,1-0.4
	c1.1-0.4,4.7,0.1,3.8,0.6c1-0.6,2.4,0,3.4,0.3c-0.1,0.6-0.8,0.8-1.4,1.2c-2-0.3-2.9-0.6-4.8-0.6c-0.1-0.3,0.3-0.3,0.7-0.3
	C594.4,7,591.9,7.5,592.3,6.5z M546.6,5.7c0.5,0.1,0.5,0.3,1,0.3c0,0.2-1.5,0.3-0.3,0.4c-0.3,0.3-0.6,0-1,0
	C546.6,6.3,546.7,6.1,546.6,5.7z M540.4,11.4c0.3,0.1,0.8,0.2,1.4,0.1c0,0.1,0,0.2,0,0.3c-0.3,0.1-0.6,0.2-1,0.1
	c0.1-0.2-0.1-0.2-0.2-0.2c0,0,0,0,0-0.1c-0.1,0-0.2,0-0.3,0C540.4,11.6,540.5,11.5,540.4,11.4z M506.1,12c1.1,0.7-2.6,0.7-2.4-0.1
	C505.3,12,505.2,12.4,506.1,12z M499.9,12.3c-0.3,0.5,0.5,0.5,0.7,0.1c0.9,0.1-0.8,0.7,0.7,0.7c0.7,0,0.2-0.5,0.3-0.7
	c1.1-0.1,1.1,0.3,1,0.7c-1.6-0.1-1,0.7-0.3,0.7c-0.6,0.2-4.1-0.3-5.1,0.1c-0.6-0.1-0.4-0.6-0.7-0.9C498.5,13.2,498,12.5,499.9,12.3z
	 M491.7,7.4c0.1-0.2,0.9-0.1,1.4-0.1c-0.2,0.1-0.5,0.4,0,0.4c-0.1,0.2-0.9,0.1-1.4,0.1C491.6,7.6,492.3,7.4,491.7,7.4z M485.5,9
	c0.6,0,1,0.8,1.7,0.3c0.7-0.3-0.3,0.5,0.3,0.7c0.4-0.2,0.9-0.1,0.3,0c-0.1,0.4,1.6-0.1,1,0.4c1.1,0.1,0.7-0.4,1.7-0.3
	c-0.5,0.3,0.2,0.4-0.3,0.9c-2.2,0.2-2.7-0.3-4.1-0.4c-0.5-0.8-0.2-1-1.4-1.5C484.9,8.9,485.4,9.3,485.5,9z M484.8,10.6
	c0.1-0.2,1.1,0.4,1,0.7c-0.5,0.1-0.8-0.6-1-0.1C483.9,11.2,485.3,11,484.8,10.6z M484.5,10.9c-0.3,0.1-0.7,0.1-1.1,0.1v-0.1
	c0,0,0.1,0,0.1,0c0.1-0.1,0-0.2-0.1-0.3v-0.3c0,0,0.1,0,0.1,0C484.1,10.4,484.1,10.7,484.5,10.9z M479.7,9.4c0,0.1,0.1,0.2,0.2,0.3
	c-0.4,0-0.8,0-1.2,0c-0.2,0.1-0.4,0.2-0.6,0.3c0-0.2-0.2-0.4-0.4-0.6C478,9.6,479.2,9.6,479.7,9.4z M471.8,11.4
	c0.4,0.3,1.3,0.3,2.1,0.4c-0.5,0.4-1.7,0.5-3.1,0.5c-0.2-0.1-0.4-0.3-0.4-0.5C471.4,12.3,470.7,11.3,471.8,11.4z M456.6,12.1
	c0.3,0,0.3-0.2,0.7-0.1c0-0.3-0.9-0.2-0.7-0.6c0.6,0.2,1.7,0,2.7,0.3c-0.9,0.5-3,0.4-3.1,0.9c-1.6,0.1-0.5-0.6-1-0.6
	C455.4,11.6,456.2,12.1,456.6,12.1z M402.7,8.4c0,0.2-0.2,0.6,0.3,0.6c-1.2,0.9-5.3,0.6-5.5-0.4C398.7,7.7,400.9,8.1,402.7,8.4z
	 M329.6,9.8c0.9,0.2,1.7-0.4,1-0.4c1.1-0.4,4.7,0.1,3.8,0.6c0.4-0.3,0.9-0.3,1.5-0.2c-1.1,0.5-3.3,0.6-5.7,0.7
	C329.8,10.3,329.5,10.1,329.6,9.8z M284,9c0.5,0.1,0.5,0.3,1,0.3c0,0.2-1.5,0.3-0.3,0.4c-0.3,0.3-0.6,0-1,0
	C283.9,9.6,284.1,9.4,284,9z M279.2,14.8c0,0.1,0,0.2,0,0.3c-0.2,0-0.3,0.1-0.6,0.1c-0.2,0-0.3,0-0.5-0.1c0-0.1-0.1-0.1-0.2-0.1
	c-0.1,0-0.1-0.1-0.2-0.1c0.1-0.1,0.1-0.1,0.1-0.2C278.1,14.8,278.6,14.8,279.2,14.8z M229,10.6c0.1-0.2,0.9-0.1,1.4-0.1
	c-0.2,0.1-0.5,0.4,0,0.4c-0.1,0.2-0.9,0.1-1.4,0.1C228.9,10.8,229.6,10.7,229,10.6z M222.8,12.3c0.6,0,1,0.8,1.7,0.3
	c0.4-0.2,0.2,0.1,0.1,0.4c0,0-0.1,0-0.1,0c-0.5-0.1-1.1-0.2-1.7-0.2c-0.1-0.1-0.4-0.2-0.7-0.4C222.3,12.2,222.8,12.6,222.8,12.3z
	 M217,12.7c0,0.3,0.5,0.5,0.8,0.7c-0.2-0.1-0.3-0.1-0.2-0.1c-0.8-0.1-1.5,0-2.3,0.1c0-0.2-0.1-0.4-0.4-0.6
	C215.4,12.9,216.6,12.9,217,12.7z M210.1,12.3c0.8,0.3,1,0.8,2.1,0.9c-0.5-0.4,0.9-0.7,1-0.3c-0.4,0-0.5,0.2-0.5,0.5
	c-1.1-0.2-2.2-0.5-3.4-0.8C209.7,12.5,210,12.5,210.1,12.3z M200.4,13.3c-0.2,0.1-0.4,0.3-0.4,0.4c0-0.1,0-0.1-0.1-0.1
	C200,13.5,200.2,13.4,200.4,13.3z M195.3,14.6c0.1,0.6,0.4,1.1,0.5,1.6c-0.4,0-0.6,0.1-0.7,0.1c1,0.1-1.1,0.1,0,0.4
	c-0.7,0-1.1,0.1-1.5,0.1v0.3c-3.6,0-6.2-0.9-7.2-2C188.7,14.6,192.6,14.2,195.3,14.6z M154.4,8.6c-0.1-0.3,1.2-0.4,1.7-0.9
	c0.7,0,0.1,0.7,0.7,0.7c0.5,0,0.3-0.4,0.3-0.6c1,0.1,0.9-0.2,1.7-0.1c2,1.1,3.8,0.5,6.2,0.7c-0.4-0.9-1.1-0.2-1-1
	c1.9,0.4,3.2,0.1,5.2,0.4c-0.1,0.7-1,0.4-1.7,0.6c0.6,0.3,1.1,0.6,2.4,0.6c0.4,0,0.3-0.3,0-0.3c0.5-0.3,1.8,0.4,2.1,0.7
	c0.9-0.6,6.3-0.7,6.2-0.1c3.5-0.3,4.7,1.5,7.6,1.9c-0.2,0.1-0.4,0.3,0,0.3c0,0.1-1.8,0.1-0.7,0.4c-3.5-0.5-8.9-0.8-12.7-0.6
	c-0.1-0.3,0.1-0.6,0.3-0.7c-1.1-1.1-3.4,0.2-4.8-0.7c-1-0.1-0.9,0.2-1.7,0.1c0.3,0.4,0.5,0.2,1.4,0.1c-1.1,0.2-1.3,0.7-2.1,1
	c-0.9-0.1-1.4-0.5-2.1,0c-0.3-0.1-0.5-0.4-0.7-0.1c-0.5,0,0.6-0.7-1-0.6c0-0.4-0.1-0.7,0.3-0.9c-2.2,0.1-4.3-0.5-7.2-0.4
	c0.7-0.3,0.1-0.6-1-0.4C153.7,8.6,154.1,8.6,154.4,8.6z M149.6,16.1c0.9,0,0.7,0.5,0.7,0.9C149,17,149.3,16.5,149.6,16.1z
	 M146.1,7.1c0.4,0.2,1.2,0.3,2.1,0.3c-0.6,0.2,0.2,1-1.4,0.7c0.6-0.5,0-0.5-1.4-0.4c0.2-0.1,0.3-0.3,0.7-0.3
	c-0.2-0.1-0.4-0.2-0.3-0.4C146.1,6.9,146.1,7,146.1,7.1z M137.2,6.8c0.9,0.2,1.7-0.4,1-0.4c1.1-0.4,4.7,0.1,3.8,0.6
	c1-0.6,2.4,0,3.4,0.3c-0.1,0.6-0.8,0.8-1.4,1.2c-2-0.3-2.9-0.6-4.8-0.6c-0.1-0.3,0.3-0.3,0.7-0.3C139.3,7.3,136.8,7.8,137.2,6.8z
	 M137.5,15.8c0.3,0.3,1.6,0.6,0.7,1c-1.6-0.6-4,0.5-4.8-0.7C135.3,16.1,136.7,15.9,137.5,15.8z M119,15.1c0-0.3-0.4-0.3-0.3-0.6
	c0.8-0.1,1.6-0.2,1.7-0.6c1.9-0.1,2.5,0.5,4.5,0.1c-0.2,0.3,0.5,0.3,1,0.3c0.4,1.6-4.2,1.7-7.2,1c-0.3,0-0.3,0.1-0.3,0.1
	c-1.1,0,0.9-0.4-0.3-0.4C118.2,14.8,118.6,15.1,119,15.1z M110.1,13.8c-0.4,0.5,0,0.3,0,0.9c-0.3-0.1-1.1-0.7-1.4-0.3
	c-0.5-0.1,0.3-0.3-0.3-0.3C108.4,13.7,109.2,13.7,110.1,13.8z M91.5,6c0.5,0.1,0.5,0.3,1,0.3c0,0.2-1.5,0.3-0.3,0.4
	c-0.3,0.3-0.6,0-1,0C91.5,6.6,91.6,6.4,91.5,6z M85.3,11.7c0.3,0.1,0.8,0.2,1.4,0.1c0,0.1,0,0.2,0,0.3c-0.3,0.1-0.6,0.2-1,0.1
	c0.1-0.3-0.3-0.3-0.3-0.1C84.8,12.1,85.5,11.9,85.3,11.7z M51,12.3c1.1,0.7-2.6,0.7-2.4-0.1C50.3,12.3,50.1,12.7,51,12.3z
	 M44.8,12.6c-0.3,0.5,0.5,0.5,0.7,0.1c0.9,0.1-0.8,0.7,0.7,0.7c0.7,0,0.2-0.5,0.3-0.7c1.1-0.1,1.1,0.3,1,0.7c-1.6-0.1-1,0.7-0.3,0.7
	c-0.6,0.2-4.1-0.3-5.1,0.1c-0.6-0.1-0.4-0.6-0.7-0.9C43.4,13.4,42.9,12.8,44.8,12.6z M36.6,7.7c0.1-0.2,0.9-0.1,1.4-0.1
	c-0.2,0.1-0.5,0.4,0,0.4c-0.1,0.2-0.9,0.1-1.4,0.1C36.5,7.9,37.2,7.7,36.6,7.7z M30.4,9.3c0.6,0,1,0.8,1.7,0.3
	c0.7-0.3-0.3,0.5,0.3,0.7c0.4-0.2,0.9-0.1,0.3,0c-0.1,0.4,1.6-0.1,1,0.4c1.1,0.1,0.7-0.4,1.7-0.3c-0.5,0.3,0.2,0.4-0.3,0.9
	c-2.2,0.2-2.7-0.3-4.1-0.4c-0.5-0.8-0.2-1-1.4-1.5C29.8,9.2,30.3,9.6,30.4,9.3z M29.7,10.9c0.1-0.2,1.1,0.4,1,0.7
	c-0.5,0.1-0.8-0.6-1-0.1C28.8,11.5,30.2,11.3,29.7,10.9z M18,17.2c0.3,0,0.6,0,0.7,0.1L18,17.2C18,17.2,18,17.2,18,17.2z"/>
</svg>
